<?xml version="1.0" encoding="UTF-8" standalone="yes"?>
<svg xmlns="http://www.w3.org/2000/svg" viewBox="0 0 50 50" width="250" height="250" fill="#666666">
  <path d="M 28.40625 5 C 27.855469 5.050781 27.449219 5.542969 27.5 6.09375 C 27.550781 6.644531 28.042969 7.050781 28.59375 7 L 41.59375 7 L 7 41.59375 L 7 28.59375 C 7.007813 28.285156 6.871094 27.992188 6.632813 27.796875 C 6.398438 27.601563 6.082031 27.527344 5.78125 27.59375 C 5.316406 27.699219 4.988281 28.117188 5 28.59375 L 5 45 L 21.40625 45 C 21.765625 45.003906 22.101563 44.816406 22.285156 44.503906 C 22.464844 44.191406 22.464844 43.808594 22.285156 43.496094 C 22.101563 43.183594 21.765625 42.996094 21.40625 43 L 8.40625 43 L 43 8.40625 L 43 21.40625 C 42.996094 21.765625 43.183594 22.101563 43.496094 22.285156 C 43.808594 22.464844 44.191406 22.464844 44.503906 22.285156 C 44.816406 22.101563 45.003906 21.765625 45 21.40625 L 45 5 L 28.59375 5 C 28.5625 5 28.53125 5 28.5 5 C 28.46875 5 28.4375 5 28.40625 5 Z"/>
</svg>